<svg width="212" height="196" viewBox="0 0 212 196" fill="none" xmlns="http://www.w3.org/2000/svg">
<rect x="8" width="196" height="196" rx="42" fill="black"/>
<path d="M66.024 75.416C72.1893 75.416 75.7706 79.8587 76.768 88.744C76.768 96.088 75.0453 100.712 71.6 102.616H70.784C68.1546 102.435 66.84 101.483 66.84 99.76L67.384 89.56V84.528L66.568 83.576H65.208C62.3066 83.576 58.9066 91.6453 55.008 107.784L54.192 117.984V120.976C54.192 130.405 58.408 135.936 66.84 137.568H72.552C81.9813 137.568 93.4053 131.493 106.824 119.344H107.368C109.816 119.344 111.221 120.885 111.584 123.968C109.499 129.408 107.051 132.128 104.24 132.128C91.2746 141.376 79.624 146 69.288 146C58.952 146 51.6533 140.333 47.392 129L46.168 119.344V117.576C46.168 103.523 50.112 90.6027 58 78.816C60.5386 76.5493 63.2133 75.416 66.024 75.416ZM171.56 64.808C173.283 64.808 174.416 66.2133 174.96 69.024C174.96 70.656 172.149 72.7867 166.528 75.416C161.632 78.4987 157.28 85.888 153.472 97.584C148.939 116.533 146.672 133.261 146.672 147.768C145.131 149.128 143.68 149.808 142.32 149.808C140.053 149.808 137.923 145.275 135.928 136.208C122.056 101.573 115.12 82.4427 115.12 78.816C115.12 77.0027 116.571 75.8693 119.472 75.416C121.829 75.416 124.096 80.0853 126.272 89.424L139.328 123.016H139.872C140.416 123.016 141.232 118.483 142.32 109.416C145.765 95.0907 149.165 85.208 152.52 79.768C160.045 69.7947 166.392 64.808 171.56 64.808Z" fill="white"/>
</svg>
