<svg width="197" height="196" viewBox="0 0 197 196" fill="none" xmlns="http://www.w3.org/2000/svg">
<rect x="0.898926" y="0.295654" width="195.578" height="195.578" rx="50" fill="black"/>
<path d="M101.215 24.0003C95.0526 24.0199 90.7806 24.5585 85.6169 25.443C70.3677 28.0768 67.5897 33.6077 67.5897 43.8009V59.3795H103.256V67.2416H66.2344H48.9958C38.5496 67.2416 29.4072 72.1239 26.5103 83.8265C23.2369 97.2589 23.0903 105.671 26.5103 119.697C29.106 130.158 34.8245 138 45.2746 138H59.6679V117.936C59.6679 106.277 70.3122 94.7587 82.51 94.7587H111.186C121.184 94.7587 131 87.4392 131 77.5526V43.8009C131 34.2131 124.029 27.0429 114.285 25.4351C114.526 25.4115 107.326 23.9767 101.215 24.0003ZM81.4638 39.7244C84.7173 39.7244 87.4081 42.3857 87.4081 45.6288C87.4081 48.9033 84.7173 51.5175 81.4638 51.5175C78.1468 51.5175 75.5194 48.9073 75.5194 45.6288C75.5194 42.3975 78.1468 39.7244 81.4638 39.7244Z" fill="url(#paint0_linear_80_6)"/>
<path d="M96.784 173C102.946 172.98 107.218 172.446 112.381 171.57C127.63 168.959 130.408 163.477 130.408 153.373V137.931H94.7432V130.138H131.767H149.005C159.451 130.138 168.593 125.298 171.49 113.698C174.763 100.384 174.91 92.0452 171.49 78.1423C168.89 67.7736 163.172 60 152.722 60H138.329V79.888C138.329 91.4451 127.686 102.862 115.488 102.862H86.8137C76.8157 102.862 67 110.117 67 119.917V153.373C67 162.877 73.9705 169.984 83.7149 171.577C83.4732 171.601 90.6735 173.023 96.784 173ZM116.538 157.414C113.285 157.414 110.594 154.776 110.594 151.561C110.594 148.315 113.285 145.724 116.538 145.724C119.855 145.724 122.482 148.311 122.482 151.561C122.482 154.764 119.851 157.414 116.538 157.414Z" fill="url(#paint1_linear_80_6)"/>
<defs>
<linearGradient id="paint0_linear_80_6" x1="47.3631" y1="55.3384" x2="109.779" y2="108.137" gradientUnits="userSpaceOnUse">
<stop stop-color="#26ABE7"/>
<stop offset="1" stop-color="#086DBF"/>
</linearGradient>
<linearGradient id="paint1_linear_80_6" x1="145.351" y1="153.17" x2="99.5764" y2="86.6835" gradientUnits="userSpaceOnUse">
<stop stop-color="#FEB705"/>
<stop offset="1" stop-color="#FFDA1C"/>
</linearGradient>
</defs>
</svg>
