<svg width="196" height="196" viewBox="0 0 196 196" fill="none" xmlns="http://www.w3.org/2000/svg">
<rect x="0.0432129" y="0.295593" width="195.578" height="195.578" rx="50" fill="white"/>
<path d="M98 148C104.566 148 111.068 146.707 117.134 144.194C123.2 141.681 128.712 137.998 133.355 133.355C137.998 128.712 141.681 123.2 144.194 117.134C146.707 111.068 148 104.566 148 98C148 91.4339 146.707 84.9321 144.194 78.8658C141.681 72.7995 137.998 67.2876 133.355 62.6447C128.712 58.0017 123.2 54.3188 117.134 51.806C111.068 49.2933 104.566 48 98 48C84.7392 48 72.0215 53.2678 62.6447 62.6447C53.2678 72.0215 48 84.7392 48 98C48 111.261 53.2678 123.978 62.6447 133.355C72.0215 142.732 84.7392 148 98 148ZM98 148C107.782 148.01 117.35 145.135 125.506 139.733C124.861 134.362 122.273 129.411 118.229 125.817C114.185 122.223 108.966 120.233 103.556 120.222H92.4444C87.0342 120.233 81.8147 122.223 77.771 125.817C73.7273 129.411 71.139 134.362 70.4944 139.733C78.6499 145.135 88.2178 148.011 98 148ZM114.667 86.8889C114.667 91.3092 112.911 95.5484 109.785 98.674C106.66 101.8 102.42 103.556 98 103.556C93.5797 103.556 89.3405 101.8 86.2149 98.674C83.0893 95.5484 81.3333 91.3092 81.3333 86.8889C81.3333 82.4686 83.0893 78.2294 86.2149 75.1038C89.3405 71.9782 93.5797 70.2222 98 70.2222C102.42 70.2222 106.66 71.9782 109.785 75.1038C112.911 78.2294 114.667 82.4686 114.667 86.8889Z" stroke="black" stroke-width="5" stroke-linecap="round" stroke-linejoin="round"/>
</svg>
