<svg width="199" height="199" viewBox="0 0 199 199" fill="none" xmlns="http://www.w3.org/2000/svg">
<path d="M155.656 198.125H43.344C19.8877 198.125 0.875 179.112 0.875 155.656V43.344C0.875 19.8877 19.8877 0.875 43.344 0.875H155.65C179.112 0.875 198.125 19.8877 198.125 43.344V155.65C198.125 179.112 179.112 198.125 155.656 198.125Z" fill="#0D47A1"/>
<path d="M198.125 43.344C198.125 19.8877 179.112 0.875 155.656 0.875H43.344C19.8877 0.875 0.875 19.8877 0.875 43.344V92.8099C17.3125 110.458 47.4589 131.931 75.6437 131.745C113.165 131.498 168.833 116.847 198.125 85.2925V43.344Z" fill="#1565C0"/>
<path d="M198.125 43.344C198.125 19.8877 179.112 0.875 155.656 0.875H43.344C19.8877 0.875 0.875 19.8877 0.875 43.344V91.2867C17.3125 110.458 40.4291 117.905 75.9067 118.162C133.159 118.578 178.005 91.7032 198.125 66.5812V43.344Z" fill="#1E88E5"/>
<path d="M198.125 43.344C198.125 19.8877 179.112 0.875 155.656 0.875H43.344C19.8877 0.875 0.875 19.8877 0.875 43.344V88.1636C25.0272 102.787 50.6094 106.037 70.318 106.442C127.778 106.771 179.556 77.7532 198.125 43.9906V43.344Z" fill="#29B6F6"/>
<path d="M155.656 0.875H43.344C19.8877 0.875 0.875 19.8877 0.875 43.344V76.1094C23.7067 90.947 47.2945 95.1879 71.6494 94.9907C111.067 94.9907 174.208 73.9945 193.643 24.4299C186.679 10.48 172.307 0.875 155.656 0.875Z" fill="#00E5FF"/>
<path d="M155.656 0.875H43.344C19.8877 0.875 0.875 19.8877 0.875 43.344V63.5676C26.8901 81.0845 58.6418 88.7882 98.2836 79.2764C147.284 67.5181 175.052 41.3222 185.019 12.71C177.392 5.39531 167.058 0.875 155.656 0.875Z" fill="#18FFFF"/>
<path d="M80.5147 0.875H43.344C19.8877 0.875 0.875 19.8877 0.875 43.344V95.5824L1.22019 96.07C24.5066 128.945 82.0379 150.177 119.707 115.592C141.624 88.1965 128.956 43.3331 112.513 28.6105C104.256 21.2137 91.336 10.1019 80.5147 0.875Z" fill="#448AFF"/>
<path d="M82.9146 0.875H43.344C19.8877 0.875 0.875 19.8877 0.875 43.344V96.5906C28.7037 118.25 72.1316 126.781 102.585 98.8151C124.501 71.4193 111.834 26.5559 95.3906 11.8333C91.9004 8.71021 87.5609 4.90219 82.9146 0.875Z" fill="#40C4FF"/>
<path d="M43.344 0.875C19.8877 0.875 0.875 19.8877 0.875 43.344V86.8048C26.5504 97.6261 57.3926 97.5768 80.6681 76.2135C98.3329 54.1325 93.5168 20.7205 82.3776 0.875H43.344Z" fill="#00E5FF"/>
<path d="M43.344 0.875C19.8877 0.875 0.875 19.8877 0.875 43.344V69.2386C19.9206 71.3316 39.5305 66.7236 55.5516 52.0121C67.162 37.4977 69.0304 18.107 65.8031 0.875H43.344Z" fill="#18FFFF"/>
<path d="M37.0813 49.4752C37.0813 49.4752 74.5205 106.059 105.998 125.197C94.0866 129.027 68.2249 144.676 23.1313 117.022C34.6157 132.764 54.9489 164.335 104.722 161.36C122.162 160.511 132.797 154.977 142.583 151.152C152.368 147.328 161.727 147.75 169.809 162.215C171.513 149.026 171.935 136.687 158.324 122.65C158.324 122.65 171.781 71.3481 114.486 30.868C126.397 54.6914 133.295 68.1263 127.696 100.952C114.935 92.4429 67.803 54.4887 57.1679 42.1496C64.8278 55.7653 86.8595 85.6323 94.5139 93.2921C80.9037 83.9337 37.0813 49.4752 37.0813 49.4752Z" fill="#212121"/>
</svg>
